<svg width="10" height="7" viewBox="0 0 10 7" fill="none" xmlns="http://www.w3.org/2000/svg">
<path d="M4.99643 1.52588e-05C5.09042 -0.000650406 5.1836 0.0214186 5.27062 0.0649586C5.35763 0.108498 5.43678 0.172651 5.50351 0.253739L9.78874 5.50321C9.85568 5.58454 9.90881 5.68131 9.94507 5.78792C9.98133 5.89454 10 6.0089 10 6.1244C10 6.23989 9.98133 6.35425 9.94507 6.46087C9.90881 6.56748 9.85568 6.66425 9.78874 6.74558C9.65492 6.90854 9.47391 7 9.28523 7C9.09654 7 8.91553 6.90854 8.78171 6.74558L4.99643 2.10855L1.21829 6.74558C1.08447 6.90854 0.903457 7 0.714774 7C0.526092 7 0.345075 6.90854 0.21126 6.74558C0.144319 6.66425 0.0911865 6.56748 0.0549269 6.46087C0.0186682 6.35425 0 6.23989 0 6.1244C0 6.0089 0.0186682 5.89454 0.0549269 5.78792C0.0911865 5.68131 0.144319 5.58454 0.21126 5.50321L4.49649 0.253739C4.62951 0.092104 4.80906 0.000981808 4.99643 1.52588e-05Z" fill="black" fill-opacity="0.8"/>
</svg>
