<svg width="8" height="5" viewBox="0 0 8 5" fill="none" xmlns="http://www.w3.org/2000/svg">
<path d="M4.00286 4.99999C3.92766 5.00046 3.85312 4.9847 3.78351 4.9536C3.71389 4.9225 3.65058 4.87668 3.59719 4.81876L0.169008 1.06914C0.115455 1.01104 0.0729493 0.941923 0.0439419 0.865768C0.0149346 0.789614 0 0.707931 0 0.625432C0 0.542933 0.0149346 0.46125 0.0439419 0.385096C0.0729493 0.308942 0.115455 0.239823 0.169008 0.181727C0.27606 0.0653318 0.420874 0 0.57182 0C0.722766 0 0.867579 0.0653318 0.974631 0.181727L4.00286 3.49389L7.02537 0.181727C7.13242 0.0653318 7.27723 0 7.42818 0C7.57913 0 7.72394 0.0653318 7.83099 0.181727C7.88454 0.239823 7.92705 0.308942 7.95606 0.385096C7.98507 0.46125 8 0.542933 8 0.625432C8 0.707931 7.98507 0.789614 7.95606 0.865768C7.92705 0.941923 7.88454 1.01104 7.83099 1.06914L4.40281 4.81876C4.29639 4.93421 4.15275 4.9993 4.00286 4.99999Z" fill="black" fill-opacity="0.8"/>
</svg>
