<svg width="22" height="22" viewBox="0 0 22 22" fill="none" xmlns="http://www.w3.org/2000/svg">
<path d="M11 21C5.48632 21 1 16.5137 1 11C1 5.48632 5.48632 1 11 1C16.5137 1 21 5.48632 21 11C21 16.5137 16.5137 21 11 21ZM11 1.85053C5.95579 1.85053 1.85053 5.95579 1.85053 11C1.85053 16.0442 5.95579 20.1495 11 20.1495C16.0442 20.1495 20.1495 16.0442 20.1495 11C20.1495 5.95579 16.0442 1.85053 11 1.85053Z" fill="#064DAE" stroke="#064DAE" stroke-width="0.5"/>
<path d="M10.9997 21C8.07764 21 5.78711 16.6084 5.78711 11C5.78711 5.39158 8.07764 1 10.9997 1C13.9218 1 16.2124 5.39158 16.2124 11C16.2124 16.6084 13.9218 21 10.9997 21ZM10.9997 1.85053C8.63553 1.85053 6.63764 6.04 6.63764 11C6.63764 15.96 8.63553 20.1495 10.9997 20.1495C13.364 20.1495 15.3618 15.96 15.3618 11C15.3618 6.04 13.364 1.85053 10.9997 1.85053Z" fill="#064DAE" stroke="#064DAE" stroke-width="0.5"/>
<path d="M11.0005 6.6362C8.37731 6.6362 5.90152 5.88462 4.03204 4.5183C3.84257 4.37936 3.80046 4.11409 3.93941 3.92462C4.07836 3.73515 4.34362 3.69304 4.53309 3.83199C6.25731 5.09304 8.55415 5.78567 10.9984 5.78567C13.4426 5.78567 15.7394 5.09094 17.4636 3.83199C17.6531 3.69304 17.9205 3.73515 18.0573 3.92462C18.1963 4.11409 18.1541 4.38146 17.9647 4.5183C16.0994 5.88462 13.6236 6.6362 11.0005 6.6362Z" fill="#064DAE" stroke="#064DAE" stroke-width="0.5"/>
<path d="M17.7143 18.2476C17.6279 18.2476 17.5395 18.2203 17.4637 18.1655C15.7395 16.9045 13.4427 16.2119 10.9985 16.2119C8.55426 16.2119 6.25742 16.9066 4.53321 18.1655C4.34374 18.3045 4.07637 18.2624 3.93952 18.0729C3.80058 17.8834 3.84268 17.6161 4.03216 17.4792C5.90163 16.1129 8.37742 15.3613 11.0006 15.3613C13.6237 15.3613 16.0995 16.1129 17.969 17.4792C18.1585 17.6182 18.2006 17.8834 18.0616 18.0729C17.9753 18.1887 17.8469 18.2476 17.7143 18.2476Z" fill="#064DAE" stroke="#064DAE" stroke-width="0.5"/>
<path d="M20.5684 11.4267H1.42526C1.18947 11.4267 1 11.2351 1 11.0014C1 10.7678 1.19158 10.5762 1.42526 10.5762H20.5684C20.8042 10.5762 20.9937 10.7678 20.9937 11.0014C20.9937 11.2351 20.8042 11.4267 20.5684 11.4267Z" fill="#064DAE" stroke="#064DAE" stroke-width="0.5"/>
<path d="M11.0013 21C10.7655 21 10.5761 20.8084 10.5761 20.5747V1.42526C10.5761 1.18947 10.7676 1 11.0013 1C11.235 1 11.4266 1.19158 11.4266 1.42526V20.5747C11.4266 20.8084 11.2371 21 11.0013 21Z" fill="#064DAE" stroke="#064DAE" stroke-width="0.5"/>
</svg>
