<svg width="24" height="18" viewBox="0 0 24 18" fill="none" xmlns="http://www.w3.org/2000/svg">
<path d="M11.6667 14C11.6012 15.6462 10.2294 17.0439 8.39168 16.9989C7.96413 16.9885 7.43567 16.8394 6.37877 16.5413C3.83521 15.8239 1.62716 14.6181 1.09738 11.9169C1 11.4204 1 10.8617 1 9.74423L1 8.25577C1 7.13832 1 6.5796 1.09738 6.08307C1.62716 3.38191 3.83521 2.17614 6.37878 1.45869C7.43568 1.16057 7.96413 1.01151 8.39168 1.00106C10.2294 0.956097 11.6012 2.35384 11.6667 4.00001" stroke="#C70000" stroke-width="2" stroke-linecap="round"/>
<path d="M22.751 8.20171H12.9732M22.751 8.20171C22.751 7.57929 20.9783 6.41641 20.5288 5.97949M22.751 8.20171C22.751 8.82414 20.9783 9.98702 20.5288 10.4239" stroke="#C70000" stroke-width="2" stroke-linecap="round" stroke-linejoin="round"/>
</svg>
