<svg width="18" height="18" viewBox="0 0 18 18" fill="none" xmlns="http://www.w3.org/2000/svg">
<path d="M16.204 5.10687L15.8091 4.42159C15.5105 3.90332 15.3612 3.64419 15.1071 3.54086C14.853 3.43752 14.5657 3.51906 13.991 3.68214L13.0149 3.95709C12.648 4.0417 12.2631 3.99371 11.9281 3.82159L11.6585 3.66608C11.3713 3.4821 11.1503 3.21082 11.028 2.89194L10.7609 2.09404C10.5852 1.56602 10.4974 1.30201 10.2883 1.15101C10.0792 1 9.80142 1 9.24593 1H8.35411C7.79862 1 7.52088 1 7.31178 1.15101C7.10268 1.30201 7.01485 1.56602 6.83919 2.09404L6.57202 2.89194C6.44972 3.21082 6.22876 3.4821 5.9415 3.66608L5.67199 3.82159C5.33699 3.99371 4.95207 4.0417 4.58519 3.95709L3.609 3.68214C3.03433 3.51906 2.747 3.43752 2.49294 3.54086C2.23888 3.64419 2.08956 3.90332 1.79092 4.42159L1.39605 5.10687C1.11613 5.59266 0.976162 5.83556 1.00333 6.09414C1.03049 6.35272 1.21786 6.56109 1.59261 6.97784L2.41744 7.90001C2.61904 8.15523 2.76217 8.6 2.76217 8.99987C2.76217 9.4 2.61909 9.84465 2.41746 10.0999L1.59261 11.0221C1.21787 11.4388 1.03049 11.6472 1.00333 11.9058C0.976162 12.1644 1.11613 12.4073 1.39605 12.8931L1.79091 13.5783C2.08954 14.0966 2.23887 14.3557 2.49294 14.4591C2.747 14.5624 3.03434 14.4809 3.60901 14.3178L4.58515 14.0428C4.9521 13.9582 5.33709 14.0062 5.67213 14.1784L5.9416 14.3339C6.22881 14.5179 6.44971 14.7891 6.572 15.108L6.83919 15.906C7.01485 16.434 7.10268 16.698 7.31178 16.849C7.52088 17 7.79862 17 8.35411 17H9.24593C9.80142 17 10.0792 17 10.2883 16.849C10.4974 16.698 10.5852 16.434 10.7609 15.906L11.028 15.108C11.1503 14.7891 11.3712 14.5179 11.6584 14.3339L11.9279 14.1784C12.2629 14.0062 12.6479 13.9582 13.0149 14.0428L13.991 14.3178C14.5657 14.4809 14.853 14.5624 15.1071 14.4591C15.3612 14.3557 15.5105 14.0966 15.8091 13.5783L15.8091 13.5783L16.204 12.8931C16.4839 12.4073 16.6239 12.1644 16.5967 11.9058C16.5695 11.6472 16.3822 11.4388 16.0074 11.0221L16.0074 11.0221L15.1826 10.0999C14.981 9.84465 14.8379 9.4 14.8379 8.99987C14.8379 8.6 14.981 8.15523 15.1826 7.90001L16.0074 6.97784C16.3822 6.56109 16.5695 6.35272 16.5967 6.09414C16.6239 5.83556 16.4839 5.59266 16.204 5.10687Z" stroke="#064DAE" stroke-width="2" stroke-linecap="round"/>
<path d="M11.5656 8.99336C11.5656 10.5398 10.312 11.7934 8.76562 11.7934C7.21922 11.7934 5.96562 10.5398 5.96562 8.99336C5.96562 7.44696 7.21922 6.19336 8.76562 6.19336C10.312 6.19336 11.5656 7.44696 11.5656 8.99336Z" stroke="#064DAE" stroke-width="2"/>
</svg>
