<svg width="17" height="18" viewBox="0 0 17 18" fill="none" xmlns="http://www.w3.org/2000/svg">
<path d="M3.86186 11.7858C2.73012 12.4597 -0.237223 13.8357 1.57009 15.5575C2.45295 16.3986 3.43623 17.0001 4.67244 17.0001H11.7266C12.9628 17.0001 13.9461 16.3986 14.8289 15.5575C16.6362 13.8357 13.6689 12.4597 12.5371 11.7858C9.88324 10.2055 6.51577 10.2055 3.86186 11.7858Z" stroke="#064DAE" stroke-width="1.5" stroke-linecap="round" stroke-linejoin="round"/>
<path d="M11.8004 4.59975C11.8004 6.58784 10.1888 8.1995 8.20068 8.1995C6.21259 8.1995 4.60093 6.58784 4.60093 4.59975C4.60093 2.61166 6.21259 1 8.20068 1C10.1888 1 11.8004 2.61166 11.8004 4.59975Z" stroke="#064DAE" stroke-width="1.5"/>
</svg>
